{"title":"2.or.3.Things.I.Know.About.Her.1967.DVDRip.XviD-KARiNA","uid":5026116,"size":1471426416,"categoryP":"video","categoryS":"movies","magnet":"?xt=urn:btih:ff04321760167bf09343f74e1054e6eb09de0d45&amp;dn=2.or.3.Things.I.Know.About.Her.1967.DVDRip.XviD-KARiNA&amp;tr=udp%3A%2F%2Ftracker.openbittorrent.com%3A80&amp;tr=udp%3A%2F%2Fopen.demonii.com%3A1337&amp;tr=udp%3A%2F%2Ftracker.coppersurfer.tk%3A6969&amp;tr=udp%3A%2F%2Fexodus.desync.com%3A6969","seeders":12,"leechers":0,"uploader":"kagomania","files":-1,"time":1248703462,"description":"88      a8P          db         88888888ba   88  888b      88         db         \n88    ,88'          d88b        88      &quot;8b  &quot;&quot;  8888b     88        d88b        \n88  ,88&quot;           d8'`8b       88      ,8P      88 `8b    88       d8'`8b       \n88,d88'           d8'  `8b      88aaaaaa8P'  88  88  `8b   88      d8'  `8b      \n8888&quot;88,         d8YaaaaY8b     88&quot;&quot;&quot;&quot;88'    88  88   `8b  88     d8YaaaaY8b     \n88P   Y8b       d8&quot;&quot;&quot;&quot;&quot;&quot;&quot;&quot;8b    88    `8b    88  88    `8b 88    d8&quot;&quot;&quot;&quot;&quot;&quot;&quot;&quot;8b    \n88     &quot;88,    d8'        `8b   88     `8b   88  88     `8888   d8'        `8b   \n88       Y8b  d8'          `8b  88      `8b  88  88      `888  d8'          `8b  \n-------------------------------------------------------------------------------\n                    -------------------------------------\n       [ 2.or.3.Things.I.Know.About.Her.1967.DVDRip.XviD-KARiNA.avi ]            \n                    -------------------------------------\n\n[Synopsis]==================================                                                                \n\n  2 or 3 Things I Know About Her | France | 1967 | Directed by Jean-Luc Godard\n                                  \nIn 2 or 3 Things I Know About Her (2 ou 3 choses que je sais d'elle), Jean-Luc \nGodard beckons us ever closer, whispering in our ears as narrator. About what? \nMoney, sex, fashion, the city, love, language, war: in a word, everything. Among \nthe legendary French filmmaker's finest achievements, the film takes as its \nostensible subject the daily life of Juliette Janson (Marina Vlady), a housewife \nfrom the Paris suburbs who prostitutes herself for extra money. Yet this is only a \ntemplate for Godard to spin off into provocative philosophical tangents and gorgeous images. 2 or 3 Things I Know About Her is perhaps Godard's most revelatory look at consumer culture, shot in ravishing widescreen color by Raoul Coutard.\n\n[ IMdB: http://www.imdb.com/title/tt0060304/ | Rating: 7.0 / 10 (1,500 votes) ]\n                                     \n[General]===================================                                                                 \n\nComplete name                    : 2.or.3.Things.I.Know.About.Her.1967.DVDRip.XviD-KARiNA.avi\nFormat                           : AVI\nFile size                        : 1.37 GiB\nDuration                         : 1h 27mn\nOverall bit rate                 : 2 234 Kbps\nSource                           : Criterion NTSC DVD9\n\n[Video]=====================================\n                                 \nFormat                           : MPEG-4 Visual\nCodec ID                         : XVID\nBit rate                         : 2 115 Kbps\nWidth                            : 720 pixels\nHeight                           : 320 pixels\nDisplay aspect ratio             : 2.25\nFrame rate                       : 23.976 fps\nResolution                       : 24 bits\nColorimetry                      : 4:2:0\nScan type                        : Progressive\nBits/(Pixel*Frame)               : 0.383\nStream size                      : 1.29 GiB (95%)\nWriting library                  : XviD 1.2.1 (UTC 2008-12-04)\n\n\n[Audio]=====================================                              \n\nFormat                           : MPEG Audio\nFormat version                   : Version 1\nFormat profile                   : Layer 3\nBit rate mode                    : Variable\nBit rate                         : 106 Kbps\nNominal bit rate                 : 160 Kbps\nChannel(s)                       : 2 channels\nSampling rate                    : 48.0 KHz\nResolution                       : 16 bits\nStream size                      : 66.6 MiB (5%)\nAlignment                        : Aligned on interleaves\nInterleave, duration             : 24 ms (0.58 video frame)\nInterleave, preload duration     : 173 ms\nWriting library                  : LAME3.98rry\nLanguage                         : French\n\n[Subtitles]=================================\n\nFormat                           : SRT\nLanguage                         : English\n\n[KARiNA]===================================","torrent":{"xt":"urn:btih:ff04321760167bf09343f74e1054e6eb09de0d45","amp;dn":"2.or.3.Things.I.Know.About.Her.1967.DVDRip.XviD-KARiNA","amp;tr":["udp%3A%2F%2Ftracker.openbittorrent.com%3A80","udp%3A%2F%2Fopen.demonii.com%3A1337","udp%3A%2F%2Ftracker.coppersurfer.tk%3A6969","udp%3A%2F%2Fexodus.desync.com%3A6969"],"infoHash":"ff04321760167bf09343f74e1054e6eb09de0d45","infoHashBuffer":{"type":"Buffer","data":[255,4,50,23,96,22,123,240,147,67,247,78,16,84,230,235,9,222,13,69]},"announce":[],"urlList":[]}}